<?xml version="1.0" encoding="UTF-8" standalone="no"?>
<!-- Created with Inkscape (http://www.inkscape.org/) -->

<svg
   width="600"
   height="100"
   viewBox="0 0 158.75 26.458333"
   version="1.1"
   id="svg1"
   inkscape:version="1.3.2 (091e20e, 2023-11-25, custom)"
   sodipodi:docname="logo optica star.svg"
   xmlns:inkscape="http://www.inkscape.org/namespaces/inkscape"
   xmlns:sodipodi="http://sodipodi.sourceforge.net/DTD/sodipodi-0.dtd"
   xmlns="http://www.w3.org/2000/svg"
   xmlns:svg="http://www.w3.org/2000/svg">
  <sodipodi:namedview
     id="namedview1"
     pagecolor="#ffffff"
     bordercolor="#000000"
     borderopacity="0.25"
     inkscape:showpageshadow="2"
     inkscape:pageopacity="0.0"
     inkscape:pagecheckerboard="0"
     inkscape:deskcolor="#d1d1d1"
     inkscape:document-units="mm"
     inkscape:zoom="1.3843855"
     inkscape:cx="333.72207"
     inkscape:cy="-74.040069"
     inkscape:window-width="1920"
     inkscape:window-height="991"
     inkscape:window-x="-9"
     inkscape:window-y="-9"
     inkscape:window-maximized="1"
     inkscape:current-layer="layer1" />
  <defs
     id="defs1">
    <clipPath
       clipPathUnits="userSpaceOnUse"
       id="clipPath7937-3">
      <path
         id="path7939-8"
         style="fill:#ff0000;fill-opacity:1;fill-rule:nonzero;stroke:none;stroke-width:0.264583"
         d="m 113.81072,32.209131 v 69.816929 h 37.22615 V 45.911656 c -0.0846,-0.07021 -0.0709,-0.147407 0,-0.229444 v -0.460954 c -0.0467,-0.05673 -0.0895,-0.116528 -0.12764,-0.179835 -0.0266,0.08204 -0.04,0.167791 -0.0351,0.255281 -0.002,-0.0236 -0.0183,-0.111025 -0.0103,-0.06666 -0.0205,-0.07837 -0.0354,-0.158448 -0.0491,-0.238228 -0.008,-0.05308 -0.01,-0.106365 -0.01,-0.159163 -0.0117,-0.02674 -0.0154,-0.03553 -0.0356,-0.08527 -0.002,-0.0038 -0.0281,-0.06557 -0.031,-0.07493 10e-4,0.0019 0.004,0.0056 0.007,0.01188 0.0197,0.04042 0.039,0.07752 0.0579,0.112138 0.007,-0.191688 0.0697,-0.377243 0.18138,-0.537951 0.004,-0.0051 0.008,-0.0096 0.0114,-0.01447 -0.0834,-0.208737 -0.14445,-0.42491 -0.19069,-0.644922 -0.063,-0.306109 -0.0398,-0.615275 0.0181,-0.919323 0.0418,-0.200031 0.11778,-0.386599 0.21394,-0.563275 v -9.907404 z m 37.22615,12.606984 c -0.0195,0.02426 -0.0389,0.04844 -0.0594,0.07183 -0.0199,0.03323 -0.0368,0.06763 -0.0512,0.102838 0.0387,0.05029 0.0754,0.08788 0.11059,0.113686 z" />
    </clipPath>
    <rect
       x="18.411526"
       y="955.35358"
       width="168.77232"
       height="140.13216"
       id="rect7945-8" />
    <filter
       inkscape:collect="always"
       style="color-interpolation-filters:sRGB"
       id="filter3"
       x="-0.1847346"
       y="-0.19081493"
       width="1.3694692"
       height="1.3816299">
      <feGaussianBlur
         inkscape:collect="always"
         stdDeviation="0.12595752"
         id="feGaussianBlur3" />
    </filter>
    <filter
       inkscape:collect="always"
       style="color-interpolation-filters:sRGB"
       id="filter7"
       x="-1.0724624"
       y="-1.2000578"
       width="3.1449247"
       height="3.4001157">
      <feGaussianBlur
         inkscape:collect="always"
         stdDeviation="0.44652185"
         id="feGaussianBlur7" />
    </filter>
    <filter
       inkscape:collect="always"
       style="color-interpolation-filters:sRGB"
       id="filter9"
       x="-0.097372474"
       y="-0.082011524"
       width="1.1947449"
       height="1.164023">
      <feGaussianBlur
         inkscape:collect="always"
         stdDeviation="0.84319799"
         id="feGaussianBlur9" />
    </filter>
  </defs>
  <g
     inkscape:label="Capa 1"
     inkscape:groupmode="layer"
     id="layer1">
    <g
       id="g11"
       transform="matrix(1.0175116,0,0,0.92158665,-1.8530514,1.4393171)">
      <ellipse
         style="mix-blend-mode:normal;fill:#000000;fill-opacity:1;stroke:none;stroke-width:0.00387276;paint-order:stroke fill markers;filter:url(#filter7)"
         id="path861-1-0-8-8-4"
         cx="123.5896"
         cy="23.507315"
         rx="0.4996224"
         ry="0.44650033"
         transform="matrix(1.2693615,0,0,1.1210924,-20.59516,-1.749236)" />
      <path
         style="mix-blend-mode:normal;fill:#000000;fill-opacity:1;stroke-width:0.186733;filter:url(#filter7)"
         d="m 79.942621,23.285536 c 0.104987,-0.21328 0.106854,-0.633363 0.0044,-0.933634 l -0.18532,-0.545914 0.872205,-0.01188 0.872172,-0.01188 -0.08467,-0.652221 -0.08478,-0.652276 -1.194095,-0.02143 c -1.118628,-0.02137 -1.237935,-0.05865 -1.88747,-0.618645 -0.989744,-0.853317 -3.287169,-1.808803 -5.876789,-2.44415 -1.229336,-0.301629 -2.332391,-0.546961 -2.451171,-0.545222 -0.118792,0.0018 -0.21585,1.571515 -0.21585,3.488406 v 3.485247 l 1.540728,-0.02382 1.540739,-0.02382 v -0.933542 -0.933536 l 1.929707,-0.02841 1.929728,-0.02841 0.17895,0.421026 c 0.09829,0.231391 0.0962,0.651707 -0.0044,0.933603 l -0.183783,0.512596 1.554269,-0.02382 c 1.509495,-0.02382 1.559737,-0.03306 1.74453,-0.410526 z m -7.14902,-3.454267 v -0.707936 l 0.866022,0.352863 c 0.476263,0.193988 1.115157,0.503258 1.419718,0.687083 l 0.553741,0.334146 -1.419729,0.02143 -1.419752,0.02143 z"
         id="path436-5-4-9-1"
         transform="matrix(1.2693615,0,0,1.1210924,-18.027461,-1.884378)" />
      <path
         style="mix-blend-mode:normal;fill:#000000;fill-opacity:1;stroke-width:0.241521;filter:url(#filter7)"
         d="m 99.952216,24.481104 c -1.855078,-0.898153 -3.2877,-2.855857 -3.787113,-5.175155 -0.584006,-2.712093 0.366971,-6.230194 2.141734,-7.923279 3.014963,-2.8762337 7.420213,-1.6753858 9.143263,2.492389 0.66593,1.610774 0.77496,4.816482 0.21763,6.399686 -1.03783,2.94821 -3.02532,4.578876 -5.5393,4.544798 -0.83587,-0.01078 -1.81517,-0.16362 -2.176214,-0.338439 z m 3.299764,-2.767416 c 1.58832,-0.833946 2.41991,-2.317204 2.41991,-4.316309 0,-4.016339 -3.60467,-6.181464 -5.961744,-3.580888 -2.233749,2.464538 -1.623122,6.679996 1.147414,7.921302 1.08028,0.484009 1.43344,0.480451 2.39442,-0.02406 z"
         id="path449-51-8-2-7"
         transform="matrix(1.3336442,0,0,1.1210924,-28.075797,-1.884378)" />
      <path
         style="mix-blend-mode:normal;fill:#000000;fill-opacity:1;stroke-width:0.140053;filter:url(#filter7)"
         d="m 108.48911,23.491725 c -0.85286,-1.761818 -0.35561,-3.620134 1.45848,-5.45074 0.84306,-0.850752 0.82298,-0.853587 1.94381,0.274109 l 0.68694,0.691148 0.28652,-0.329015 c 0.15759,-0.180947 0.54682,-0.566726 0.86495,-0.857279 l 0.57844,-0.528282 0.6367,0.528282 c 0.35018,0.290553 0.93706,0.989998 1.30418,1.554317 0.65157,1.001607 0.66748,1.056263 0.66748,2.293516 0,0.939866 -0.0771,1.415683 -0.2978,1.840854 l -0.29782,0.573387 h -0.97891 c -0.87102,0 -0.96529,-0.02333 -0.85535,-0.211248 0.59904,-1.024236 0.75449,-1.581214 0.68221,-2.444395 -0.074,-0.883287 -0.50077,-1.931395 -0.78645,-1.931395 -0.2,0 -0.62458,0.786581 -0.83074,1.539072 l -0.17363,0.633725 h -0.84866 -0.84866 l -0.0949,-0.5953 c -0.0867,-0.543943 -0.64789,-1.577503 -0.85652,-1.577503 -0.18285,0 -0.69157,1.053287 -0.79778,1.65177 -0.12787,0.720635 0.13128,1.81372 0.58859,2.4826 l 0.30948,0.452674 h -1.0274 -1.02742 z"
         id="path462-2-7-1-3"
         transform="matrix(1.2693615,0,0,1.1210924,-20.59516,-1.749236)" />
      <path
         style="mix-blend-mode:normal;fill:#000000;fill-opacity:1;stroke-width:0.118023;filter:url(#filter7)"
         d="m 119.5747,23.379724 c 0.009,-0.624608 0.0143,-0.635084 0.40733,-0.633859 0.62792,0.0018 1.00855,-0.178217 1.05932,-0.501416 0.0604,-0.384499 -0.21794,-0.674109 -0.7901,-0.821994 l -0.44538,-0.115123 -0.0499,-0.602977 c -0.0482,-0.582069 -0.0372,-0.604618 0.31646,-0.650446 0.48128,-0.06235 0.69304,-0.255998 0.66397,-0.607177 -0.0285,-0.3439 -0.34863,-0.565678 -0.88624,-0.613924 -0.43318,-0.03888 -0.54864,-0.225355 -0.6153,-0.99377 -0.0326,-0.378603 -0.0144,-0.39487 0.4052,-0.357216 1.68447,0.151166 2.90708,1.719155 2.31842,2.973337 l -0.21982,0.468329 0.3361,0.410979 c 0.2662,0.325483 0.34671,0.538923 0.38704,1.026017 0.0454,0.548835 0.009,0.660462 -0.3454,1.036953 -0.43546,0.463547 -1.2792,0.731374 -2.07818,0.659666 l -0.47116,-0.04231 z"
         id="path488-4-6-6-6"
         transform="matrix(1.2693615,0,0,1.1210924,-20.59516,-1.749236)" />
      <path
         style="mix-blend-mode:normal;fill:#000000;fill-opacity:1;stroke-width:0.120363;filter:url(#filter7)"
         d="m 125.07503,23.768092 -0.26949,-0.529102 0.32238,-0.249465 c 0.17728,-0.137213 0.53374,-0.459439 0.79212,-0.716049 0.38967,-0.387021 0.44007,-0.487719 0.29555,-0.590579 -0.0959,-0.06822 -0.28408,-0.124882 -0.41836,-0.125929 -0.30847,-0.0024 -0.94102,-0.460186 -1.24509,-0.901068 -0.57888,-0.839345 -0.2928,-2.401542 0.54115,-2.95508 0.53927,-0.357938 1.58455,-0.361036 2.119,-0.0064 0.67236,0.446269 0.91967,1.031619 0.91967,2.176592 0,1.171668 -0.23462,1.951037 -0.85808,2.850274 -0.40427,0.583079 -1.54302,1.578924 -1.8031,1.576805 -0.0694,-4.95e-4 -0.24753,-0.239123 -0.39575,-0.530118 z m 1.83745,-3.764113 c 0,-0.992692 -0.53022,-1.545555 -1.09863,-1.145548 -0.5396,0.379698 -0.33852,1.222546 0.34381,1.441031 0.65565,0.209955 0.75482,0.171138 0.75482,-0.295483 z"
         id="path523-0-0-2-6"
         transform="matrix(1.2693615,0,0,1.1210924,-20.59516,-1.749236)" />
      <path
         style="mix-blend-mode:normal;fill:#000000;fill-opacity:1;stroke-width:0.417428;filter:url(#filter7)"
         d="m 57.706248,23.831145 c -1.427087,-0.464913 -1.752942,-0.771692 -1.850033,-1.741859 -0.163136,-1.629313 0.42176,-4.058291 1.096412,-4.553688 0.820293,-0.60234 2.957129,0.416949 2.356013,1.12385 -0.485477,0.570895 -0.586654,2.108437 -0.213862,3.250612 0.433917,1.329795 3.2307,0.526824 3.2307,-0.927554 0,-0.388515 -0.297127,-1.297916 -0.660265,-2.020859 -0.657695,-1.309328 -2.098521,-2.146488 -5.357521,-3.112914 -1.832802,-0.543502 -2.353454,-1.138557 -2.680934,-3.064148 -0.75841,-4.4595224 6.538404,-4.3741306 8.990959,0.105082 l 0.869624,1.588286 h -1.735712 c -1.445174,0 -1.735711,-0.142993 -1.735711,-0.855191 0,-0.470338 -0.319453,-1.319137 -0.709914,-1.886162 -1.415589,-2.0558063 -2.758676,0.334961 -1.435851,2.55593 0.301827,0.506736 1.766395,1.483118 3.254608,2.169742 4.778884,2.204885 5.575818,3.59279 3.574971,6.226208 -0.931639,1.226158 -1.393318,1.454543 -3.175681,1.570817 -1.147026,0.07482 -2.865002,-0.117958 -3.817726,-0.42825 z"
         id="path10520-7-0"
         transform="matrix(1.2693615,0,0,1.1210924,-18.027461,-1.884378)" />
      <path
         style="mix-blend-mode:normal;fill:#000000;fill-opacity:1;stroke-width:0.306106;filter:url(#filter7)"
         d="m 66.288011,23.062006 c 0.12515,-0.445987 0.231224,-1.751189 0.235573,-2.900442 0.01131,-2.72405 -0.474901,-3.421884 -2.901023,-4.172875 l -1.840029,-0.569499 5.217029,-0.207329 c 4.102333,-0.163008 5.272532,-0.126064 5.476685,0.17229 0.539464,0.788987 0.233509,0.984182 -1.531118,0.976914 -1.731055,-0.0072 -1.810949,0.0267 -2.07156,0.87719 -0.149299,0.486519 -0.177402,2.059712 -0.0626,3.495992 0.232377,2.908891 0.11352,3.126084 -1.711881,3.134049 -0.977279,0.0049 -1.025325,-0.04359 -0.811123,-0.806418 z"
         id="path10533-5-8"
         transform="matrix(1.2693615,0,0,1.1210924,-18.027461,-1.884378)" />
      <path
         style="mix-blend-mode:normal;fill:#000000;fill-opacity:1;stroke-width:0.25645;filter:url(#filter7)"
         d="M 82.175341,23.530464 C 82.06271,23.454195 81.948586,22.678641 81.92156,21.807396 l -0.04931,-1.584159 2.019034,-0.09866 c 1.418784,-0.06958 2.017715,-0.0379 2.014509,0.111768 -0.0044,0.163473 0.101033,0.162757 0.470321,-0.0049 0.261117,-0.117003 0.973941,-0.224479 1.584118,-0.239008 l 1.109391,-0.02645 -0.900823,0.680727 c -0.694869,0.525049 -1.017341,0.641703 -1.410614,0.510294 -0.802909,-0.268225 -1.314215,0.09056 -1.831847,1.285652 -0.422924,0.976381 -0.557013,1.078659 -1.505366,1.148175 -0.572608,0.04194 -1.133179,0.01433 -1.245732,-0.06243 z"
         id="path10572-4-8"
         transform="matrix(1.2693615,0,0,1.1210924,-18.027461,-1.884378)" />
      <ellipse
         style="fill:#6600ff;fill-opacity:0.835294;stroke:none;stroke-width:0.0044091;paint-order:stroke fill markers"
         id="path861-1-0-8-8-4-6"
         cx="135.12241"
         cy="24.040993"
         rx="0.61683589"
         ry="0.46876311" />
      <path
         style="fill:#6600ff;fill-opacity:0.835294;stroke-width:0.212594"
         d="m 83.803377,23.673015 c 0.129617,-0.223914 0.131922,-0.664943 0.0054,-0.980185 l -0.228797,-0.573134 1.076828,-0.01247 1.076787,-0.01247 -0.104534,-0.684741 -0.10467,-0.684799 -1.474234,-0.0225 c -1.381063,-0.02244 -1.52836,-0.06157 -2.330278,-0.649491 -1.221942,-0.895864 -4.058353,-1.898991 -7.255508,-2.566017 -1.517743,-0.316668 -2.87958,-0.574233 -3.026226,-0.572407 -0.146661,0.0019 -0.266489,1.649872 -0.266489,3.66234 v 3.659024 l 1.902189,-0.02501 1.902203,-0.02501 v -0.980089 -0.980082 l 2.382424,-0.02983 2.38245,-0.02983 0.220932,0.442018 c 0.121349,0.242928 0.118769,0.684202 -0.0054,0.980153 l -0.226899,0.538154 1.918907,-0.02501 c 1.863628,-0.02501 1.925657,-0.03471 2.153804,-0.430995 z m -8.82621,-3.626499 v -0.743234 l 1.069195,0.370457 c 0.587996,0.203661 1.376777,0.528351 1.752789,0.721342 l 0.683651,0.350806 -1.752803,0.0225 -1.752832,0.0225 z"
         id="path436-5-4-9-1-0" />
      <path
         style="fill:#6600ff;fill-opacity:0.835294;stroke-width:0.27497"
         d="m 105.9396,25.063337 c -2.29028,-0.942935 -4.059,-2.998252 -4.67558,-5.433191 -0.72102,-2.84732 0.45306,-6.540836 2.64419,-8.318339 3.72229,-3.0196442 9.16103,-1.7589213 11.28831,2.616661 0.82216,1.691088 0.95677,5.056635 0.26869,6.718778 -1.28131,3.09521 -3.73507,4.807182 -6.83884,4.771405 -1.03197,-0.01132 -2.24102,-0.171778 -2.68677,-0.355314 z m 4.07391,-2.905401 c 1.96094,-0.875527 2.98763,-2.432741 2.98763,-4.531523 0,-4.216596 -4.45034,-6.489675 -7.3604,-3.759433 -2.75779,2.587421 -2.00391,7.013065 1.41661,8.316263 1.33371,0.508142 1.76973,0.504406 2.95616,-0.02526 z"
         id="path449-51-8-2-7-0" />
      <path
         style="fill:#6600ff;fill-opacity:0.835294;stroke-width:0.159449"
         d="m 116.47929,24.024627 c -1.05295,-1.849663 -0.43904,-3.800636 1.80064,-5.722517 1.04085,-0.893171 1.01606,-0.896148 2.39984,0.287776 l 0.8481,0.725609 0.35374,-0.34542 c 0.19456,-0.189969 0.6751,-0.594983 1.06787,-0.900023 l 0.71414,-0.554623 0.78608,0.554623 c 0.43233,0.30504 1.15689,1.03936 1.61014,1.631816 0.80443,1.051548 0.82408,1.108929 0.82408,2.407872 0,0.986728 -0.0952,1.48627 -0.36767,1.93264 l -0.36769,0.601977 h -1.20857 c -1.07536,0 -1.19175,-0.02449 -1.05601,-0.221781 0.73957,-1.075305 0.93149,-1.660055 0.84225,-2.566274 -0.0914,-0.927329 -0.61825,-2.027696 -0.97095,-2.027696 -0.24692,0 -0.77111,0.8258 -1.02563,1.615811 l -0.21437,0.665323 h -1.04776 -1.04776 l -0.11716,-0.624982 c -0.10704,-0.571064 -0.79989,-1.656158 -1.05746,-1.656158 -0.22575,0 -0.85382,1.105804 -0.98495,1.734128 -0.15787,0.756566 0.16208,1.904153 0.72668,2.606384 l 0.38208,0.475245 h -1.26843 -1.26846 z"
         id="path462-2-7-1-3-6" />
      <path
         style="fill:#6600ff;fill-opacity:0.835294;stroke-width:0.134368"
         d="m 130.1656,23.907042 c 0.0111,-0.655752 0.0177,-0.66675 0.5029,-0.665464 0.77523,0.0019 1.24516,-0.187103 1.30784,-0.526417 0.0746,-0.40367 -0.26907,-0.70772 -0.97546,-0.862979 l -0.54987,-0.120863 -0.0616,-0.633042 c -0.0595,-0.611091 -0.0459,-0.634765 0.3907,-0.682878 0.59419,-0.06546 0.85563,-0.268762 0.81974,-0.637451 -0.0352,-0.361047 -0.43042,-0.593883 -1.09415,-0.644534 -0.53481,-0.04082 -0.67736,-0.236592 -0.75965,-1.04332 -0.0402,-0.397481 -0.0178,-0.414559 0.50026,-0.375027 2.07965,0.158703 3.58909,1.804873 2.86233,3.121589 l -0.27139,0.49168 0.41495,0.431471 c 0.32865,0.341712 0.42805,0.565794 0.47784,1.077175 0.056,0.5762 0.0111,0.693393 -0.42643,1.088656 -0.53762,0.486659 -1.57931,0.76784 -2.56573,0.692557 l -0.5817,-0.04442 z"
         id="path488-4-6-6-6-0" />
      <path
         style="fill:#6600ff;fill-opacity:0.835294;stroke-width:0.137032"
         d="m 136.95633,24.314774 -0.33271,-0.555484 0.39801,-0.261903 c 0.21887,-0.144055 0.65896,-0.482347 0.97796,-0.751752 0.48108,-0.406318 0.54331,-0.512037 0.36488,-0.620025 -0.11839,-0.07162 -0.35072,-0.131109 -0.51651,-0.132208 -0.38083,-0.0025 -1.16178,-0.483131 -1.53719,-0.945996 -0.71469,-0.881195 -0.36149,-2.521284 0.66811,-3.102422 0.66578,-0.375785 1.95629,-0.379037 2.61612,-0.0067 0.8301,0.46852 1.13543,1.083056 1.13543,2.285118 0,1.230088 -0.28966,2.048317 -1.05939,2.99239 -0.49911,0.612152 -1.90502,1.657651 -2.22611,1.655426 -0.0857,-5.2e-4 -0.3056,-0.251046 -0.4886,-0.55655 z m 2.26853,-3.951794 c 0,-1.042188 -0.65461,-1.622617 -1.35638,-1.202666 -0.66619,0.39863 -0.41793,1.283503 0.42447,1.512882 0.80947,0.220423 0.93191,0.179671 0.93191,-0.310216 z"
         id="path523-0-0-2-6-2" />
      <path
         style="fill:#6600ff;fill-opacity:0.835294;stroke-width:0.475238"
         d="M 56.350259,24.245829 C 54.588372,23.757735 54.18607,23.43566 54.066201,22.41712 c -0.201408,-1.710552 0.520707,-4.26064 1.353635,-4.780738 1.012737,-0.632373 3.650883,0.437738 2.908743,1.179886 -0.599372,0.59936 -0.724285,2.213565 -0.264035,3.412689 0.535716,1.3961 3.988636,0.553092 3.988636,-0.973802 0,-0.407887 -0.366835,-1.362631 -0.815166,-2.12162 -0.811993,-1.374612 -2.590843,-2.253514 -6.614418,-3.268126 -2.262784,-0.570601 -2.905584,-1.195326 -3.309892,-3.216928 -0.936336,-4.6818773 8.072341,-4.5922278 11.100275,0.110321 l 1.073641,1.667479 h -2.142917 c -1.784217,0 -2.142916,-0.150123 -2.142916,-0.897831 0,-0.49379 -0.394398,-1.38491 -0.876462,-1.980208 -1.747692,-2.1583096 -3.405873,0.351663 -1.772708,2.683371 0.372637,0.532002 2.180799,1.557067 4.018153,2.277926 5.900029,2.314822 6.883927,3.771929 4.413673,6.536651 -1.150205,1.287295 -1.720196,1.527067 -3.920708,1.649139 -1.416123,0.07855 -3.537144,-0.12384 -4.713381,-0.449603 z"
         id="path10520-7-0-2" />
      <path
         style="fill:#6600ff;fill-opacity:0.835294;stroke-width:0.348499"
         d="m 66.945339,23.43834 c 0.154511,-0.468224 0.28547,-1.838504 0.29084,-3.04506 0.01396,-2.859873 -0.586315,-3.592501 -3.581615,-4.380937 l -2.271708,-0.597894 6.440966,-0.217667 c 5.064757,-0.171136 6.509489,-0.13235 6.761537,0.18088 0.666025,0.828327 0.288292,1.033254 -1.890324,1.025624 -2.137168,-0.0076 -2.235805,0.02803 -2.557557,0.920927 -0.184325,0.510777 -0.219021,2.162411 -0.07729,3.670304 0.286894,3.053931 0.140152,3.281953 -2.113495,3.290315 -1.206553,0.0051 -1.265871,-0.04576 -1.001416,-0.846626 z"
         id="path10533-5-8-2" />
      <path
         style="fill:#6600ff;fill-opacity:0.835294;stroke-width:0.291966"
         d="m 86.559902,23.930156 c -0.139055,-0.08007 -0.279953,-0.894296 -0.313319,-1.808982 l -0.06088,-1.663146 2.492707,-0.103579 c 1.751637,-0.07305 2.491079,-0.03979 2.487121,0.117341 -0.0054,0.171624 0.124736,0.170872 0.58066,-0.0051 0.322377,-0.122836 1.202432,-0.235671 1.955759,-0.250925 l 1.369659,-0.02777 -1.11216,0.714668 c -0.857888,0.551228 -1.256013,0.673699 -1.74155,0.535738 -0.991275,-0.281599 -1.622535,0.09507 -2.261606,1.349755 -0.522143,1.025064 -0.68769,1.132442 -1.858531,1.205424 -0.706944,0.04403 -1.399027,0.01504 -1.537986,-0.06554 z"
         id="path10572-4-8-5" />
    </g>
    <g
       id="g9"
       transform="matrix(0.8535584,0,0,0.69318977,4.9770387,-84.183783)"
       style="fill:#ffcc00;fill-opacity:1">
      <path
         style="fill:#ffcc00;stroke-width:0.0592079;fill-opacity:1"
         d="m 73.026796,134.78271 c -0.56226,-0.29998 -1.23687,-0.52417 -1.75327,-0.58266 -0.38235,-0.0433 -0.50917,-0.0305 -0.8967,0.0904 -0.19286,0.0602 0.38052,-0.45197 0.68386,-0.61084 0.27107,-0.14197 0.65081,-0.19438 0.89881,-0.12406 0.17032,0.0483 0.97909,0.78203 1.32696,1.20384 0.11415,0.13842 0.19816,0.25135 0.18667,0.25096 -0.0115,-2e-4 -0.21234,-0.10285 -0.44633,-0.22769 z"
         id="path7883-2-3" />
      <text
         xml:space="preserve"
         transform="matrix(0.93169869,0,0,0.40960036,51.901692,-256.54774)"
         id="text7943-5"
         style="white-space:pre;shape-inside:url(#rect7945-8);display:inline;fill:#ffcc00;stroke-width:4.79244;stroke-linejoin:round;stroke-dasharray:none;paint-order:stroke fill markers;fill-opacity:1"><tspan
           x="18.412109"
           y="966.30148"
           id="tspan2">opticas</tspan></text>
    </g>
    <path
       style="color:#000000;fill:#ffff00;stroke:#000000;stroke-width:1.3;stroke-linejoin:round;stroke-dasharray:none;stroke-opacity:1"
       d="m 123.65039,32.859375 c -1.21951,5.51e-4 -2.24139,0.0019 -2.9668,0.0039 -0.3627,10e-4 -0.65139,0.0025 -0.85351,0.0039 -0.10106,7.14e-4 -0.18003,0.0011 -0.23633,0.002 -0.0563,8.21e-4 -0.0895,8.32e-4 -0.0996,0.002 -0.92452,0.102589 -1.72386,0.414353 -2.45508,0.955078 -0.22775,0.168418 -0.62007,0.538423 -0.79687,0.751953 -0.6006,0.725336 -0.95742,1.5817 -1.03906,2.492187 -0.005,0.05757 -0.008,0.299973 -0.0117,0.6875 -0.003,0.387528 -0.007,0.918867 -0.008,1.546875 l -0.002,2.042969 h -0.31445 c -0.13817,-1.55e-4 -0.21917,3.39e-4 -0.26953,0.0039 -0.0504,0.0036 -0.0697,0.01113 -0.084,0.02344 h -0.002 c -0.004,0.0035 -0.007,0.0069 -0.01,0.01367 -0.003,0.0067 -0.006,0.0166 -0.008,0.0293 -0.004,0.02539 -0.008,0.06577 -0.01,0.138672 -0.004,0.145811 -0.003,0.417711 -0.004,0.933593 l -0.002,1.089844 0.0449,0.0332 c 0.0201,0.01507 0.0386,0.02495 0.0859,0.0293 0.0474,0.0043 0.1257,0.0037 0.26953,0.0039 h 0.29882 l -0.002,1.158203 -0.002,1.15625 H 114.875 c -0.14381,-1.65e-4 -0.22215,-3.14e-4 -0.26953,0.0039 -0.0474,0.0042 -0.0658,0.01225 -0.0859,0.02734 l -0.0449,0.03516 -0.004,2.230468 -0.002,2.230469 0.0352,0.03125 c 0.016,0.01391 0.0352,0.0207 0.084,0.02539 0.0487,0.0047 0.12899,0.0073 0.27149,0.0098 l 0.30859,0.0059 v 0.591797 l -0.002,0.59375 -0.29883,-0.002 c -0.14381,-1.55e-4 -0.22215,0.0016 -0.26953,0.0059 -0.0474,0.0042 -0.0658,0.01226 -0.0859,0.02734 l -0.0449,0.0332 -0.004,2.232422 -0.002,2.232422 0.0449,0.0332 c 0.02,0.01479 0.0386,0.02489 0.0859,0.0293 0.0474,0.0044 0.12374,0.0038 0.26758,0.0039 l 0.30078,0.002 -0.0254,20.294922 c -0.009,6.801355 -0.0139,11.891032 -0.0156,15.296875 -8.8e-4,1.702921 -8.8e-4,2.986021 0,3.849609 4.4e-4,0.431794 0.001,0.75926 0.002,0.982422 4.4e-4,0.111581 -5.5e-4,0.196272 0,0.255859 5.6e-4,0.05959 0.001,0.09237 0.002,0.101563 0.0793,0.910662 0.4345,1.767479 1.0332,2.494141 0.17624,0.21393 0.56761,0.584982 0.79492,0.753912 0.79529,0.59101 1.66926,0.90895 2.69141,0.97851 h 0.002 0.002 c 0.0394,0.002 5.85018,0.0106 12.91211,0.0176 4.96706,0.005 8.18293,0.007 10.17188,0.006 0.99447,-4.6e-4 1.68171,-0.002 2.12695,-0.004 0.22262,-9.8e-4 0.38635,-0.003 0.4961,-0.004 0.0549,-6.9e-4 0.0952,-10e-4 0.125,-0.002 0.0297,-7.8e-4 0.047,-9.1e-4 0.0547,-0.002 0.6113,-0.0824 1.05555,-0.20664 1.54297,-0.42969 0.79082,-0.36185 1.43898,-0.89997 1.93164,-1.603515 0.39049,-0.557629 0.63064,-1.142754 0.75781,-1.845703 l 0.0352,-0.199219 0.0273,-17.560547 c 0.0147,-9.657639 0.0331,-20.163691 0.0391,-23.347656 l 0.0117,-5.78125 0.20898,-0.0039 c 0.0942,-0.0013 0.14929,-0.0012 0.18555,-0.0059 0.0362,-0.0046 0.0549,-0.01397 0.0703,-0.02734 l 0.0371,-0.03125 0.002,-2.228516 0.004,-2.228516 -0.0371,-0.03125 c -0.0152,-0.01326 -0.0335,-0.02192 -0.0703,-0.02734 -0.0368,-0.0054 -0.0914,-0.0084 -0.1836,-0.01172 l -0.21093,-0.0078 -0.002,-1.082031 c -0.002,-0.598585 -0.004,-2.626238 -0.004,-4.505859 v -3.417969 l -0.0352,-0.197266 c -0.12504,-0.701383 -0.35933,-1.277456 -0.74414,-1.833984 -0.80245,-1.160546 -2.03919,-1.885881 -3.50195,-2.054687 -0.01,-0.0012 -0.0415,-0.003 -0.0977,-0.0039 -0.0562,-9.42e-4 -0.13541,-10e-4 -0.23633,-0.002 -0.20183,-0.0019 -0.48911,-0.0041 -0.85156,-0.0059 -0.7249,-0.0036 -1.74762,-0.0066 -2.9668,-0.0098 -2.43836,-0.0064 -5.66706,-0.0121 -8.89648,-0.01563 -3.22942,-0.0035 -6.45941,-0.005 -8.89844,-0.0039 z m 0,0.01563 c 2.43902,-0.0011 5.66902,3.83e-4 8.89844,0.0039 3.22941,0.0035 6.45813,0.0092 8.89648,0.01563 1.21918,0.0032 2.23997,0.0062 2.96485,0.0098 0.36244,0.0018 0.65172,0.004 0.85351,0.0059 0.1009,9.32e-4 0.18025,10e-4 0.23633,0.002 0.0561,9.42e-4 0.0892,0.0032 0.0957,0.0039 1.45872,0.168339 2.69227,0.891938 3.49219,2.048828 0.38363,0.554822 0.61552,1.126629 0.74023,1.826172 l 0.0352,0.197265 v 3.416016 c 3.1e-4,1.879623 0.002,3.907165 0.004,4.505859 l 0.002,1.095703 0.22461,0.0098 c 0.092,0.0033 0.14824,0.0065 0.18359,0.01172 0.0354,0.0052 0.0494,0.01205 0.0625,0.02344 l 0.0312,0.02539 -0.004,2.222656 -0.002,2.220703 -0.0312,0.02734 c -0.0135,0.01173 -0.0278,0.01902 -0.0625,0.02344 -0.0347,0.0044 -0.0895,0.0046 -0.18359,0.0059 l -0.22461,0.0039 -0.0117,5.796875 c -0.006,3.183971 -0.0244,13.690015 -0.0391,23.347656 l -0.0273,17.558594 -0.0352,0.197266 c -0.12683,0.701056 -0.36659,1.285903 -0.75586,1.841797 -0.49112,0.701345 -1.13734,1.236895 -1.92578,1.597655 -0.48615,0.22247 -0.92686,0.34552 -1.53711,0.42774 -0.005,7.2e-4 -0.0231,0.001 -0.0527,0.002 -0.0296,7.8e-4 -0.0702,10e-4 -0.125,0.002 -0.10967,0.001 -0.2735,0.003 -0.4961,0.004 -0.4452,0.002 -1.13249,0.003 -2.12695,0.004 -1.98893,9.2e-4 -5.20482,-10e-4 -10.17188,-0.006 -7.06086,-0.007 -12.86904,-0.0153 -12.91015,-0.0176 h -0.002 -0.002 c -1.0204,-0.0691 -1.89003,-0.38488 -2.68359,-0.97461 -0.22541,-0.16751 -0.61831,-0.539944 -0.79297,-0.751956 -0.5968,-0.724357 -0.95028,-1.578824 -1.0293,-2.486328 -5.3e-4,-0.0061 -0.001,-0.04007 -0.002,-0.09961 -5.5e-4,-0.05954 4.4e-4,-0.144292 0,-0.255859 -8.8e-4,-0.223133 -0.002,-0.550636 -0.002,-0.982422 -8.8e-4,-0.863572 -8.9e-4,-2.146692 0,-3.849609 0.002,-3.405835 0.007,-8.495522 0.0156,-15.296875 l 0.0254,-20.310547 -0.3164,-0.002 c -0.14379,-1.56e-4 -0.21968,3.69e-4 -0.26563,-0.0039 -0.046,-0.0043 -0.0591,-0.01134 -0.0781,-0.02539 l -0.0391,-0.0293 0.002,-2.224609 0.004,-2.22461 0.0391,-0.02734 c 0.0191,-0.01431 0.0322,-0.02129 0.0781,-0.02539 0.046,-0.0041 0.12381,-0.006 0.26758,-0.0059 l 0.31445,0.002 0.002,-0.609375 v -0.607422 l -0.32421,-0.0059 c -0.14246,-0.0025 -0.22202,-0.0032 -0.26954,-0.0078 -0.0475,-0.0046 -0.0602,-0.01129 -0.0742,-0.02344 l -0.0312,-0.02734 0.002,-2.222657 0.004,-2.222656 0.0391,-0.0293 c 0.0191,-0.01431 0.0322,-0.0213 0.0781,-0.02539 0.046,-0.0041 0.12381,-0.0041 0.26758,-0.0039 h 0.31445 l 0.002,-1.171875 0.002,-1.173828 h -0.31445 c -0.14379,-1.6e-4 -0.22163,3.09e-4 -0.26758,-0.0039 -0.0459,-0.0042 -0.0591,-0.0111 -0.0781,-0.02539 l -0.0391,-0.0293 V 42.49049 c 5e-4,-0.515872 0.002,-0.786315 0.006,-0.93164 0.002,-0.07266 0.006,-0.114889 0.01,-0.138672 0.002,-0.01189 0.004,-0.0186 0.006,-0.02344 0.002,-0.0048 0.005,-0.0072 0.008,-0.0098 0.0108,-0.0093 0.0268,-0.01604 0.0762,-0.01953 0.0493,-0.0035 0.12948,-0.0041 0.26758,-0.0039 h 0.33008 l 0.002,-2.058594 c 0.001,-0.627985 0.005,-1.159407 0.008,-1.546875 0.003,-0.387467 0.007,-0.631277 0.0117,-0.685546 0.0814,-0.907331 0.43646,-1.761338 1.03516,-2.484375 0.17521,-0.211617 0.56907,-0.582995 0.79492,-0.75 0.72914,-0.539196 1.52519,-0.848854 2.44726,-0.951172 0.007,-7.44e-4 0.0414,-0.0011 0.0977,-0.002 0.0562,-8.21e-4 0.13529,-0.0012 0.23633,-0.002 0.20208,-0.0014 0.49082,-0.0029 0.85351,-0.0039 0.72538,-0.002 1.74729,-0.0034 2.9668,-0.0039 z"
       id="path1220-5-6"
       clip-path="url(#clipPath7937-3)"
       transform="matrix(0.36705025,0,0,0.35168155,-62.864362,-11.198129)" />
    <g
       id="g17">
      <path
         style="mix-blend-mode:normal;fill:#000000;fill-opacity:0.835294;stroke-width:1.193;stroke-dashoffset:5.10614;filter:url(#filter9)"
         d="m 21.918014,24.730992 c 0,0 -0.810852,-22.332221 0.540568,-22.8727891 l 0.878423,-0.6081391 h 1.824418 c 0,0 7.166001,-0.48437596 7.567953,0.3040696 l 0.912209,0.8108522 0.03378,2.6690549 c 0,0 -0.39707,2.268002 0,2.2974145 l 0.912209,0.067571 2.060914,0.067571 c 0,0 4.353306,-0.6500437 5.236755,0.7770668 l 0.439211,0.7094957 0.135141,2.0947015 v 3.648835 c 0,0 -0.422319,2.229844 -1.368313,2.229844 -0.945994,0 -4.138723,0.371641 -4.138723,0.371641 l -3.378551,0.101355 -0.101356,5.473253 c 0,0 0.176665,2.506059 -0.574354,2.398771 l -0.878425,0.405426 -1.418991,-0.101357 -7.804451,0.202713 z"
         id="path8"
         sodipodi:nodetypes="csccsccsccscccscccscccc"
         transform="matrix(1.0935054,0,0,0.98609116,-6.2719334,0.01221881)" />
      <path
         style="opacity:1;fill:#5600db;fill-opacity:0.972549;stroke-width:0.152338;stroke-dashoffset:5.10614"
         d="m 29.786563,16.073455 c -0.115033,-2.882498 -0.08048,-7.3349698 0.06594,-8.4970563 l 0.02021,-0.16048 1.137092,7.94e-4 c 2.711881,0.0021 5.195763,0.0715 6.086668,0.170338 1.052496,0.116766 1.599065,0.423961 1.919594,1.078892 0.210034,0.4291565 0.224761,0.6391295 0.225108,3.2096223 2.64e-4,2.382052 -0.01924,2.719321 -0.186664,3.219363 -0.287875,0.859771 -0.837258,1.212278 -2.114896,1.357005 -0.938787,0.106344 -3.339436,0.186121 -5.623746,0.186883 l -1.506738,5.3e-4 z"
         id="path11" />
      <path
         style="fill:#ffcc00;stroke-width:0.223714;stroke-dashoffset:5.10614"
         d="m 18.963658,24.931822 c -0.351212,-0.08568 -0.648526,-0.264955 -0.845431,-0.509778 -0.320444,-0.398428 -0.304016,0.03024 -0.304016,-7.932412 0,-7.2355583 -5.78e-4,-7.2753166 -0.104495,-7.2998243 -0.09683,-0.022834 -0.104495,-0.064266 -0.104495,-0.5651999 0,-0.5037339 0.008,-0.5464059 0.117557,-0.6263994 0.102254,-0.074669 0.117557,-0.1300934 0.117557,-0.4258434 0,-0.3003295 -0.01371,-0.3482161 -0.117557,-0.4103905 -0.109872,-0.065787 -0.117557,-0.1037503 -0.117557,-0.5807683 0,-0.4815854 0.0073,-0.5170261 0.130619,-0.628169 0.122068,-0.1100772 0.130619,-0.148913 0.130619,-0.5932252 0,-0.4443121 -0.0085,-0.4831477 -0.130619,-0.5932252 -0.147101,-0.1326516 -0.183078,-0.3961973 -0.05409,-0.3961973 0.152154,0 0.184706,-0.1837046 0.185216,-1.0452193 4.92e-4,-0.8090587 0.0083,-0.8779659 0.124637,-1.1033434 0.15427,-0.2987684 0.444577,-0.5652441 0.758391,-0.6961343 0.239057,-0.099709 0.254772,-0.1000129 5.177183,-0.1000129 h 4.937398 l 0.275838,0.112408 c 0.164022,0.066841 0.368574,0.2054201 0.504605,0.3418596 0.386158,0.3873102 0.395129,0.4403062 0.395129,2.3343927 0,1.6063588 0.0036,1.6674892 0.104495,1.7453461 0.09317,0.071938 0.104496,0.1389876 0.104496,0.6186233 0,0.4579482 -0.0136,0.546905 -0.09143,0.5982252 -0.08631,0.056909 -0.0929,0.528199 -0.117559,8.4152865 l -0.02612,8.355001 -0.128417,0.233588 c -0.163779,0.297918 -0.468322,0.572545 -0.778123,0.701691 -0.242421,0.101055 -0.252545,0.101276 -5.049688,0.110541 -4.114514,0.008 -4.848165,-8.08e-4 -5.094141,-0.06082 z M 27.891602,5.5364947 C 27.788024,5.3603069 26.549141,4.2777772 25.981546,3.8674969 25.141992,3.2606332 25.036302,3.2152175 24.475781,3.2204674 23.901732,3.2258416 23.49735,3.324633 23.026672,3.57448 c -0.610365,0.3239963 -1.265185,0.8374999 -1.17346,0.9202159 0.01017,0.00912 0.216396,-0.028625 0.458397,-0.083887 1.093524,-0.2497093 2.810358,0.072616 4.698181,0.8820529 0.894975,0.3837374 0.977597,0.4065643 0.881812,0.2436329 z"
         id="path1" />
      <path
         style="fill:#000000;fill-opacity:0.996078;stroke-width:0.434882"
         d="M 23.500229,16.160802 C 21.998116,15.652744 20.999278,15.13119 20.36637,14.524425 l -0.393025,-0.376795 -0.02107,-1.030315 -0.02107,-1.030313 -0.275696,-0.01083 c -0.435214,-0.01707 -0.640745,-0.292029 -0.577153,-0.772093 0.110761,-0.836107 0.435702,-1.9619942 0.61056,-2.1155296 0.127533,-0.1119835 0.31821,-0.1525296 0.655202,-0.13931 0.458582,0.017986 0.483755,0.00562 0.71504,-0.3522219 0.283778,-0.4390058 0.512802,-0.5796343 1.273536,-0.7819841 0.863717,-0.2297464 4.942856,-0.4392071 7.164945,-0.3551349 0.619477,0.00992 0.593347,-0.047232 0.594427,0.1680021 0.0021,0.096065 0.01453,0.2191699 -0.0521,0.2168053 -0.06662,-0.00237 -0.999525,0.00286 -2.011193,0.011616 -2.922369,0.025293 -4.988896,0.2148752 -5.886182,0.5399993 -0.526492,0.1907702 -0.843869,0.7333314 -1.193361,2.0400678 -0.220835,0.825704 -0.275398,1.254296 -0.295424,2.320618 l -0.02458,1.307871 0.477878,0.336009 c 0.622526,0.437716 1.674342,0.944787 2.529286,1.219346 0.862495,0.276987 1.746269,0.173215 3.671336,0.01015 0.791317,-0.067 1.829938,-0.03115 2.249458,-0.02976 0.601688,0.002 0.460332,-0.07738 0.482307,0.267722 0.01017,0.28548 0.02918,0.206057 -0.849312,0.195733 -0.304952,-0.0036 -1.344215,-0.03321 -2.051427,0.03245 -1.79055,0.166211 -2.621217,0.308322 -3.63861,-0.03579 z"
         id="path5"
         sodipodi:nodetypes="cscccssssssccssssccsssscsscc" />
      <path
         style="fill:#000000;fill-opacity:1;stroke-width:0.0555663"
         d="M 25.515413,13.637764 C 25.185837,13.540871 24.896975,13.405786 24.63394,13.225529 24.365746,13.04174 24.075806,12.535293 24.042584,12.192571 l -0.02361,-0.243253 0.324559,0.0039 c 0.26874,0.0034 0.324359,0.01924 0.323401,0.09333 -0.0031,0.221233 0.140679,0.503491 0.362931,0.713644 0.724446,0.685022 2.141365,0.351088 2.274404,-0.536024 l 0.03531,-0.235542 0.332568,0.0039 0.332572,0.0039 -0.038,0.27387 c -0.07423,0.535015 -0.577481,1.08449 -1.198462,1.308498 -0.34762,0.125399 -0.933169,0.15296 -1.252895,0.05898 z m 0.134999,-1.024928 c -0.208676,-0.07998 -0.371578,-0.272108 -0.420546,-0.495971 l -0.03358,-0.153638 0.792214,0.0094 0.792212,0.0094 -0.0021,0.13275 c -0.0072,0.433915 -0.605886,0.69826 -1.128064,0.498133 z m -1.429057,-1.249384 c 0.298297,-0.581691 1.07958,-0.985218 1.887552,-0.974921 0.810611,0.0105 1.438615,0.373851 1.736123,1.004945 l 0.09095,0.192904 -1.902931,-0.02248 -1.902931,-0.02248 z"
         id="path543-9-7-6" />
      <ellipse
         style="fill:#000000;fill-opacity:1;stroke:none;stroke-width:0.679006;stroke-linejoin:round;stroke-dasharray:none;stroke-opacity:1;paint-order:stroke fill markers"
         id="path11423-9"
         cx="34.609272"
         cy="11.938747"
         rx="1.6998777"
         ry="1.4769275" />
      <ellipse
         style="mix-blend-mode:normal;fill:#ffcc00;fill-opacity:1;stroke:none;stroke-width:0.00660105;paint-order:stroke fill markers;filter:url(#filter3)"
         id="path861-13-6-2-76"
         cx="37.377346"
         cy="12.071326"
         rx="0.81819552"
         ry="0.79212368"
         transform="matrix(1.0935054,0,0,0.98609116,-6.2719334,0.01221881)" />
      <path
         style="fill:#6600ff;fill-opacity:0.835294;stroke-width:0.111857;stroke-dashoffset:5.10614"
         d="m 34.12721,13.888605 c -0.927371,-0.151917 -1.624729,-0.657258 -1.893855,-1.372385 -0.08072,-0.214484 -0.08685,-0.252484 -0.08849,-0.548479 -0.0021,-0.3817 0.02544,-0.496649 0.195322,-0.815489 0.272682,-0.511724 0.85977,-0.929787 1.540158,-1.096733 0.193837,-0.04756 0.280137,-0.05432 0.679218,-0.05324 0.526077,0.0015 0.715175,0.03592 1.095329,0.19981 0.504756,0.217606 0.946417,0.606601 1.142361,1.006145 0.223517,0.455763 0.220988,1.038475 -0.0065,1.486036 -0.337376,0.663909 -1.084676,1.120819 -1.970008,1.204491 -0.314685,0.02974 -0.463355,0.02756 -0.693594,-0.01015 z m 0.844911,-0.497181 c 0.617343,-0.113114 1.144314,-0.556857 1.299039,-1.093875 0.06182,-0.214564 0.04189,-0.635636 -0.03998,-0.844732 -0.07586,-0.193747 -0.283091,-0.472032 -0.445734,-0.598555 -0.182389,-0.141886 -0.426943,-0.269991 -0.624635,-0.327205 -0.242869,-0.07029 -0.688771,-0.08562 -0.95233,-0.03275 -0.654913,0.131391 -1.169144,0.608297 -1.283939,1.190739 -0.20515,1.040883 0.855503,1.924792 2.047576,1.706375 z"
         id="path7" />
      <path
         style="fill:#000000;fill-opacity:1;stroke-width:0.0286837"
         d="m 25.332349,14.87892 c -0.849622,-0.124503 -1.692273,-0.536052 -2.204812,-1.076834 -0.526547,-0.55556 -0.695648,-0.919407 -0.808114,-1.738794 -0.0137,-0.09977 -0.02126,-0.106164 -0.161615,-0.13662 -0.254254,-0.05517 -0.454969,-0.270772 -0.455628,-0.489421 -3.4e-4,-0.144859 0.173437,-0.356645 0.356497,-0.434237 0.04729,-0.02006 0.169105,-0.03663 0.270684,-0.03685 l 0.184691,-6.51e-4 0.18105,-0.303567 c 0.440772,-0.7390574 1.183378,-1.2746874 2.120312,-1.5293592 1.15063,-0.3127556 2.422186,-0.1452 3.391288,0.4468689 0.214794,0.13123 0.459938,0.3309174 0.731015,0.5954573 l 0.07592,0.0741 0.163708,-0.06731 c 0.326164,-0.134094 0.620402,-0.1836162 1.090989,-0.1836162 0.471022,0 0.764809,0.049521 1.092088,0.1840692 l 0.164811,0.06775 0.126385,-0.126231 c 0.782288,-0.7812797 1.864753,-1.1827923 3.071955,-1.1394605 1.34905,0.048427 2.502508,0.6629244 3.100425,1.6517485 l 0.198623,0.328478 0.19266,6.49e-4 c 0.153852,6.51e-4 0.219224,0.01491 0.324577,0.07033 0.147761,0.07773 0.294915,0.270639 0.294635,0.386236 -6.82e-4,0.233565 -0.193736,0.44765 -0.455109,0.504366 l -0.146731,0.03184 -0.01824,0.143527 c -0.08254,0.649142 -0.243521,1.041556 -0.611942,1.491647 -0.548377,0.669948 -1.448304,1.149823 -2.411987,1.286167 -1.660425,0.234912 -3.339641,-0.496467 -4.002103,-1.74311 -0.18704,-0.351991 -0.315304,-0.840455 -0.31479,-1.198857 1.23e-4,-0.119912 0.06127,-0.499002 0.113828,-0.706246 0.02097,-0.08278 0.0186,-0.08486 -0.197643,-0.16733 -0.198683,-0.07578 -0.246844,-0.0835 -0.521429,-0.0835 -0.274518,0 -0.322777,0.0078 -0.521188,0.0834 -0.206026,0.07859 -0.217527,0.08751 -0.199135,0.154409 0.01072,0.03905 0.04365,0.210043 0.07316,0.379971 0.116456,0.670894 -0.08869,1.389455 -0.564492,1.977341 -0.553604,0.68401 -1.424389,1.150702 -2.43461,1.30481 -0.311602,0.04753 -0.959512,0.04667 -1.289727,-0.0019 z m 1.257881,-1.005986 c 0.105086,-0.02192 0.305715,-0.08443 0.445832,-0.138867 0.868615,-0.33749 1.385261,-1.003498 1.385261,-1.785722 0,-0.769792 -0.497451,-1.426565 -1.3418,-1.77154 -0.3544,-0.144798 -0.656586,-0.2013735 -1.07843,-0.201906 -0.688847,-6.499e-4 -1.258856,0.187047 -1.730481,0.570497 -0.474466,0.385758 -0.721594,0.866235 -0.721594,1.402949 0,0.397539 0.135355,0.766779 0.395654,1.079335 0.406439,0.488038 0.95519,0.779163 1.668898,0.885393 0.204293,0.03042 0.745191,0.0082 0.97666,-0.04014 z m 8.60841,-0.01247 c 0.568382,-0.129465 1.05515,-0.418832 1.403257,-0.834187 0.524491,-0.62582 0.509654,-1.57626 -0.03422,-2.191998 -0.359997,-0.407552 -0.832514,-0.68044 -1.390855,-0.803244 -0.350951,-0.077181 -0.917085,-0.076856 -1.255808,6.51e-4 -0.442138,0.101295 -0.77631,0.260081 -1.097629,0.52158 -0.477157,0.388324 -0.708017,0.843178 -0.708017,1.394987 0,0.994879 0.860563,1.806122 2.085111,1.965623 0.245873,0.03205 0.738622,0.0056 0.99817,-0.05352 z"
         id="path451-0-2-1" />
      <ellipse
         style="fill:#000000;stroke:none;stroke-width:0.00408442;paint-order:stroke fill markers"
         id="path861-13-6-7"
         cx="37.837639"
         cy="8.8794832"
         rx="0.49400842"
         ry="0.50228626" />
      <path
         style="opacity:1;fill:#5200d5;fill-opacity:1;stroke-width:0.814256;stroke-dashoffset:5.10614"
         d="m 98.283678,43.656617 c -3.799069,-0.02723 -6.907397,-0.117607 -6.907397,-0.200847 0,-0.269232 1.003173,-1.543825 1.687011,-2.143452 2.9293,-2.568571 8.089238,-2.565791 10.743448,0.0058 0.70355,0.681647 1.86602,2.537362 1.52282,2.43095 -0.0762,-0.02362 -3.24681,-0.06521 -7.045882,-0.09244 z"
         id="path12"
         transform="scale(0.26458333)" />
      <path
         style="opacity:1;fill:#5200d5;fill-opacity:1;stroke-width:0.407128;stroke-dashoffset:5.10614"
         d="m 96.748701,51.564932 c -1.30661,-0.301686 -3.1243,-1.185814 -3.91427,-1.90391 -0.935875,-0.850725 -1.732878,-2.331848 -1.908602,-3.546881 -0.143903,-0.995007 -0.194901,-0.923542 0.653611,-0.915918 0.409703,0.0037 0.927221,0.03415 1.150041,0.06772 l 0.405125,0.06103 0.06971,0.496611 c 0.229652,1.636056 1.821887,3.213341 3.687789,3.653162 0.744716,0.175541 2.131849,0.1748 2.880035,-0.0015 1.87832,-0.442697 3.28188,-1.783037 3.47667,-3.320066 0.10712,-0.845271 7e-5,-0.783022 1.3465,-0.783022 h 1.19792 l -0.0754,0.56433 c -0.18152,1.3593 -0.68209,2.379079 -1.68537,3.433528 -0.93975,0.987673 -2.17993,1.734107 -3.43341,2.066479 -0.90329,0.239517 -3.058085,0.311417 -3.850398,0.128479 z"
         id="path13"
         transform="scale(0.26458333)" />
      <path
         style="opacity:1;fill:#5200d5;fill-opacity:1;stroke-width:0.407128;stroke-dashoffset:5.10614"
         d="M 97.787067,47.843378 C 96.472824,47.591686 95.706208,46.915639 95.394315,45.73331 l -0.119754,-0.453968 2.904096,0.02381 2.904093,0.02381 0.0273,0.423243 c 0.0513,0.79578 -0.52699,1.517529 -1.511158,1.886005 -0.493462,0.184753 -1.392223,0.287517 -1.811815,0.207161 z"
         id="path14"
         transform="scale(0.26458333)" />
      <path
         style="fill:#000000;fill-opacity:0.996078;stroke-width:0.105022"
         d="m 27.080333,5.2972427 c -1.087338,-0.488043 -2.391957,-0.852784 -3.390625,-0.947937 -0.739416,-0.07047 -0.984668,-0.04964 -1.734102,0.147125 -0.372984,0.09794 0.735877,-0.735325 1.322496,-0.993795 0.524216,-0.230978 1.258602,-0.316255 1.7382,-0.201849 0.329373,0.07858 1.893454,1.27231 2.566196,1.958567 0.220756,0.2252 0.383205,0.408934 0.36099,0.408308 -0.0222,-3.26e-4 -0.410632,-0.167332 -0.863155,-0.37044 z"
         id="path7883-9" />
    </g>
  </g>
</svg>
